<svg xmlns="http://www.w3.org/2000/svg" width="960" height="247" viewBox="0 0 660 170" role="img" aria-label="GitHub statistics">
    <g>
      <style>
    .title{font:600 15px -apple-system,BlinkMacSystemFont,"Segoe UI",sans-serif;fill:#24292F}
    .value{font:600 23px -apple-system,BlinkMacSystemFont,"Segoe UI",sans-serif;fill:#24292F}
    .label{font:12px -apple-system,BlinkMacSystemFont,"Segoe UI",sans-serif;fill:#57606A}
    .small{font:11px -apple-system,BlinkMacSystemFont,"Segoe UI",sans-serif;fill:#57606A}
  </style>
      <text x="16" y="22" class="title">Most Used Languages</text>
      <text x="16" y="39" class="small">Authored code changes · public commits</text>
      <g transform="translate(0 9)"><rect x="16" y="43" width="179.93" height="8" fill="#B07219"/><rect x="195.93467032711368" y="43" width="68.43" height="8" fill="#F1E05A"/><rect x="264.3688986087199" y="43" width="14.32" height="8" fill="#4F5D95"/><rect x="278.6900563026383" y="43" width="11.19" height="8" fill="#A97BFF"/><rect x="289.8798566841934" y="43" width="9.55" height="8" fill="#3572A5"/><rect x="299.43474012377277" y="43" width="4.57" height="8" fill="#D0D7DE"/></g>
      <g><circle cx="21" cy="72" r="4" fill="#B07219"/>
        <text x="32" y="76" class="label">Java</text>
        <text x="304" y="76" text-anchor="end" class="small">62.5%</text><circle cx="21" cy="92" r="4" fill="#F1E05A"/>
        <text x="32" y="96" class="label">JavaScript</text>
        <text x="304" y="96" text-anchor="end" class="small">23.8%</text><circle cx="21" cy="112" r="4" fill="#4F5D95"/>
        <text x="32" y="116" class="label">PHP</text>
        <text x="304" y="116" text-anchor="end" class="small">5.0%</text><circle cx="21" cy="132" r="4" fill="#A97BFF"/>
        <text x="32" y="136" class="label">Kotlin</text>
        <text x="304" y="136" text-anchor="end" class="small">3.9%</text><circle cx="21" cy="152" r="4" fill="#3572A5"/>
        <text x="32" y="156" class="label">Python</text>
        <text x="304" y="156" text-anchor="end" class="small">3.3%</text></g>
    </g>
    <g transform="translate(340 0)">
      <style>
    .title{font:600 15px -apple-system,BlinkMacSystemFont,"Segoe UI",sans-serif;fill:#24292F}
    .value{font:600 23px -apple-system,BlinkMacSystemFont,"Segoe UI",sans-serif;fill:#24292F}
    .label{font:12px -apple-system,BlinkMacSystemFont,"Segoe UI",sans-serif;fill:#57606A}
    .small{font:11px -apple-system,BlinkMacSystemFont,"Segoe UI",sans-serif;fill:#57606A}
  </style>
      <text x="16" y="25" class="title">Contribution Streak</text>
      <text x="53" y="88" text-anchor="middle" class="value">987</text>
      <text x="53" y="112" text-anchor="middle" class="label">Contributions</text>
      <circle cx="160" cy="82" r="34" fill="none" stroke="#EAB308" stroke-width="4"/>
      <text x="160" y="89" text-anchor="middle" class="value">6</text>
      <text x="160" y="132" text-anchor="middle" class="label">Current Streak</text>
      <text x="267" y="88" text-anchor="middle" class="value">15</text>
      <text x="267" y="112" text-anchor="middle" class="label">Longest Streak</text>
      <text x="160" y="158" text-anchor="middle" class="small">Updated daily · Asia/Seoul</text>
    </g>
  </svg>
